<svg width="1117" height="424" viewBox="0 0 1117 424" fill="none" xmlns="http://www.w3.org/2000/svg">
<path d="M302.92 104.743L346.455 86.4199L365.128 124.703L319.379 143.377L302.92 104.743Z" fill="#FFB6B6"/>
<path opacity="0.1" d="M302.92 104.743L346.455 86.4199L365.128 124.703L319.379 143.377L302.92 104.743Z" fill="black"/>
<path d="M309.109 90.1548L352.057 139.643C352.057 139.643 322.18 233.949 292.303 242.353C262.426 250.757 207.341 291.841 207.341 291.841L138.251 247.022L171.862 197.534C171.862 197.534 253.09 86.4199 274.564 86.4199C296.038 86.4199 309.109 90.1548 309.109 90.1548V90.1548Z" fill="#D16FFF"/>
<path d="M251.082 412.759H151.107L144.786 404.308L118.98 369.807L113.042 361.87C113.042 361.87 90.6348 320.786 95.303 283.437C99.9713 246.088 148.521 237.684 148.521 237.684H150.519L209.955 289.917L206.407 338.527L225.23 369.807L251.082 412.759Z" fill="#2F2E41"/>
<path d="M171.582 412.759H144.786V373.075L171.582 412.759Z" fill="#2F2E41"/>
<path d="M908.162 135.192L918.156 197.537L855.013 198.352V144.148L908.162 135.192Z" fill="#FFB6B6"/>
<path opacity="0.1" d="M908.162 135.192L918.156 197.537L855.013 198.352V144.148L908.162 135.192Z" fill="black"/>
<path d="M1058.57 352.514L1055.24 369.807L1046.96 412.759H880.783C882.08 403.132 883.854 389.275 885.75 374.317C885.936 372.823 886.132 371.32 886.319 369.807C891.071 332.206 896.272 289.656 896.272 289.656L918.119 292.308L960.507 297.443L977.779 299.535L1024.03 305.146C1047.09 307.938 1062.96 329.694 1058.57 352.514Z" fill="#F2F2F2"/>
<path d="M749.53 352.514L746.197 369.807L737.925 412.759H571.745C573.042 403.132 574.816 389.275 576.712 374.317C576.898 372.823 577.094 371.32 577.281 369.807C582.033 332.206 587.234 289.656 587.234 289.656L609.081 292.308L651.469 297.443L668.741 299.535L714.994 305.146C738.055 307.938 753.918 329.694 749.53 352.514Z" fill="#F2F2F2"/>
<path d="M984.707 412.759H894.573C895.945 411.143 896.72 410.21 896.72 410.21L923.74 405.746L979.413 396.558C979.413 396.558 981.953 403.123 984.707 412.759V412.759Z" fill="#2F2E41"/>
<path d="M860.709 412.759H724.592C725.946 410.07 727.347 407.371 728.784 404.682C730.708 401.087 732.762 397.884 734.937 395.037C736.384 393.141 737.878 391.404 739.419 389.817C743.947 385.158 748.877 381.768 754.068 379.443C772.601 371.105 794.439 376.212 813.037 384.523C820.021 387.641 826.547 391.208 832.27 394.682C842.354 400.807 849.963 406.652 853.203 409.248C854.323 410.135 854.92 410.648 854.92 410.648L860.709 412.759V412.759Z" fill="#2F2E41"/>
<path d="M752.723 412.759H733.415L738.504 406.848L741.379 403.505L742.612 404.505L752.723 412.759Z" fill="#FFB6B6"/>
<path d="M991.299 412.759H825.034L832.27 394.682L842.214 369.807L847.209 357.314L843.082 339.75C843.082 339.75 841.046 338.312 837.947 335.726C826.902 326.575 802.319 303.008 807.967 278.806C814.391 251.261 822.458 197.581 824.166 186.011C824.381 184.564 824.493 183.78 824.493 183.78L848.488 177.897L849.281 177.701L851.858 177.066H916.13L963.401 209.084L963.392 209.42L960.507 297.443L959.275 335.1C959.275 335.1 957.79 340.535 958.145 348.976C958.378 354.765 959.471 361.964 962.496 369.807C965.698 378.145 971.085 387.203 979.927 396.045C986.603 402.721 989.842 408.342 991.299 412.759V412.759Z" fill="#D16FFF"/>
<path d="M977.779 299.535C976.202 312.476 974.689 321.673 974.689 321.673L958.145 348.976L945.522 369.807L923.74 405.746L920.547 411.022L918.269 412.759H849.935L853.203 409.248L885.75 374.317L889.96 369.807L896.785 362.477L918.119 292.307L943.263 209.607C943.263 209.607 953.449 206.059 963.392 209.42C968.62 211.185 973.793 214.864 977.35 221.998C984.156 235.611 980.842 274.548 977.779 299.535Z" fill="#D16FFF"/>
<path d="M857.572 297.275L837.947 335.726L820.553 369.807L813.037 384.523L810.077 390.331L784.71 412.759H727.272L736.739 400.994L740.259 396.605L754.068 379.443L761.817 369.807L782.852 343.644L788.463 224.483C789.393 204.719 804.45 188.742 824.048 186.031C824.09 186.025 824.129 186.019 824.166 186.011C830.534 184.732 840.654 184.359 848.488 191.931C848.758 192.184 849.02 192.454 849.281 192.734C850.598 194.126 851.84 195.76 852.979 197.674C853.091 197.861 853.203 198.057 853.305 198.253C853.632 198.85 853.95 199.504 854.239 200.204C864.238 223.492 857.572 297.275 857.572 297.275L857.572 297.275Z" fill="#D16FFF"/>
<path d="M602.381 123.419L641.579 178.858L573.205 180.901L565.866 128.8L602.381 123.419Z" fill="#A0616A"/>
<path opacity="0.1" d="M602.381 123.419L641.579 178.858L573.205 180.901L565.866 128.8L602.381 123.419Z" fill="black"/>
<path d="M409.074 238.286C404.044 223.775 392.481 214.609 383.248 217.812C374.015 221.014 370.61 235.371 375.643 249.886C377.574 255.712 380.872 260.99 385.261 265.28L407.348 326.491L435.849 315.513L411.049 256.335C411.842 250.247 411.164 244.058 409.074 238.286Z" fill="#A0616A"/>
<path d="M674.406 210.037L674.353 266.536L669.096 287.405L658.285 330.329L650.414 369.807L644.551 399.22L642.459 409.724C640.881 410.779 639.313 411.788 637.744 412.759H501.179C493.421 408.1 489.079 404.477 489.079 404.477C489.079 404.477 491.227 402.46 493.682 399.22C497.827 393.748 502.841 384.784 499.769 376.222C499.125 374.429 498.957 372.244 499.153 369.807C500.404 353.728 517.266 326.538 517.266 326.538L513.774 286.182L512.243 268.497L523.039 182.267L558.228 161.809L564.303 161.221L624.272 157.981L649.058 159.41L650.188 159.718L674.406 210.037L674.406 210.037Z" fill="#7DC143"/>
<path d="M677.07 412.759H647.193L645.876 399.22L645.848 398.949L654.307 398.37L676.313 396.867L676.696 404.971L676.995 411.19L677.07 412.759Z" fill="#FFB6B6"/>
<path d="M684.424 223.697L696.975 297.34L686.733 369.807L685.136 381.087L682.317 401.003L681.448 407.128L681.476 407.791L681.691 412.759H646.212L644.905 399.22L644.793 398.006L642.123 370.274L642.076 369.807L636.409 311.001L647.52 268.497L648.341 265.369V265.36L653.175 192.585L649.431 159.512L649.394 159.204C649.469 159.251 649.534 159.298 649.609 159.344C649.805 159.466 650.001 159.587 650.188 159.718C671.998 173.556 684.994 197.833 684.424 223.697Z" fill="#7DC143"/>
<path d="M535.749 196.379L522.106 182.266C522.106 182.266 492.9 195.434 491.444 202.739C489.988 210.045 438.421 317.342 438.421 317.342L415.986 257.417L386.783 276.916C386.783 276.916 410.215 369.953 432.13 374.321C454.044 378.689 527.491 264.202 527.491 264.202L535.749 196.379H535.749Z" fill="#7DC143"/>
<path d="M874.698 162.94C899.769 162.94 920.093 142.615 920.093 117.542C920.093 92.4687 899.769 72.1431 874.698 72.1431C849.628 72.1431 829.304 92.4687 829.304 117.542C829.304 142.615 849.628 162.94 874.698 162.94Z" fill="#FFB6B6"/>
<path d="M893.521 135.39C893.521 135.39 888.816 122.424 886.147 115.696C883.479 108.967 885.219 100.236 885.219 100.236C885.219 100.236 849.61 92.3755 835.665 100.167C821.721 107.958 820.783 68.7696 834.935 58.104C834.935 58.104 838.725 64.6913 837.255 66.5851L835.784 68.479C835.784 68.479 846.494 45.8276 864.578 44.6936C864.578 44.6936 873.15 51.5337 869.92 53.7915C866.689 56.0493 893.737 41.0283 898.443 53.9946C898.443 53.9946 915.689 57.0675 912.329 62.9586L912.612 67.0245C912.612 67.0245 928.243 65.4014 927.129 76.4789C927.129 76.4789 921.871 75.4309 918.507 77.6766C915.144 79.9222 926.507 90.5705 926.507 90.5705C926.507 90.5705 933.337 134.943 909.652 147.718C909.652 147.718 913.494 127.525 904.454 130.826C895.413 134.127 893.521 135.39 893.521 135.39V135.39Z" fill="#2F2E41"/>
<path d="M1089.73 423.713H27.2729C12.2345 423.713 0 411.478 0 396.438C0 381.398 12.2345 369.163 27.2729 369.163H1089.73C1104.77 369.163 1117 381.398 1117 396.438C1117 411.478 1104.77 423.713 1089.73 423.713Z" fill="white"/>
<path d="M668.188 286.025L666.123 382.427C665.923 391.759 658.301 399.22 648.968 399.22H471.648C462.535 399.22 455.012 392.096 454.515 382.996L449.245 286.594C448.708 276.764 456.534 268.497 466.378 268.497H651.034C660.654 268.497 668.395 276.406 668.188 286.025Z" fill="#3F3D56"/>
<path d="M1053.49 286.025L1051.43 382.427C1051.23 391.759 1043.6 399.22 1034.27 399.22H856.951C847.839 399.22 840.316 392.096 839.818 382.996L834.548 286.594C834.011 276.764 841.837 268.497 851.682 268.497H1036.34C1045.96 268.497 1053.7 276.406 1053.49 286.025Z" fill="#3F3D56"/>
<path d="M381.933 128.013C405.364 128.013 424.358 109.018 424.358 85.5853C424.358 62.1529 405.364 43.1572 381.933 43.1572C358.503 43.1572 339.509 62.1529 339.509 85.5853C339.509 109.018 358.503 128.013 381.933 128.013Z" fill="#FFB6B6"/>
<path d="M310.976 196.6L315.644 247.022L347.388 374.943L319.964 384.556L273.63 245.154L267.231 189.13L310.976 196.6Z" fill="#FFB6B6"/>
<path d="M298.349 286.025L296.283 382.427C296.083 391.759 288.462 399.22 279.128 399.22H101.808C92.6955 399.22 85.1723 392.096 84.6749 382.996L79.4053 286.594C78.8679 276.764 86.6939 268.497 96.5385 268.497H281.194C290.814 268.497 298.555 276.406 298.349 286.025H298.349Z" fill="#3F3D56"/>
<path d="M352.443 399.871C370.947 399.871 385.948 393.236 385.948 385.051C385.948 376.865 370.947 370.23 352.443 370.23C333.939 370.23 318.938 376.865 318.938 385.051C318.938 393.236 333.939 399.871 352.443 399.871Z" fill="#FFB6B6"/>
<path d="M245.154 204.309L264.294 102.293C264.294 102.293 317.512 94.8234 319.379 112.564C321.246 130.305 318.045 217.007 318.045 217.007L245.154 204.309V204.309Z" fill="#D16FFF"/>
<path d="M364.808 92.2565C364.808 92.2565 391.051 82.8894 402.122 77.8494C413.192 72.8095 435.184 107.963 435.674 89.3972C436.163 70.8315 428.563 63.0459 428.563 63.0459C428.563 63.0459 426.666 22.4308 385.751 27.5086C385.751 27.5086 394.75 7.18842 365.209 4.04627C335.667 0.90413 289.708 72.2483 293.824 82.9103C297.94 93.5723 302.874 102.387 291.197 113.787C279.519 125.187 257.653 189.526 274.29 206.839C290.926 224.152 292.018 231.665 280.619 242.436C269.221 253.207 242.277 276.627 271.409 280.693C300.542 284.758 268.744 281.722 290.463 262.616C312.181 243.511 343.873 244.291 332.04 213.638C320.207 182.985 340.765 139.059 338.193 132.395C335.621 125.731 343.957 83.416 343.957 83.416C343.957 83.416 363.357 80.5655 364.808 92.2566V92.2565Z" fill="#2F2E41"/>
<path d="M581.423 143.485C606.928 143.485 627.605 122.807 627.605 97.2993C627.605 71.7915 606.928 51.1133 581.423 51.1133C555.917 51.1133 535.241 71.7915 535.241 97.2993C535.241 122.807 555.917 143.485 581.423 143.485Z" fill="#A0616A"/>
<path d="M585.109 35.2054C583.772 35.9855 581.982 34.8052 581.554 33.3182C581.125 31.8313 581.624 30.2525 582.119 28.7864L584.611 21.4055C586.378 16.1708 588.254 10.7532 592.081 6.7689C597.858 0.755277 607.039 -0.774561 615.303 0.333753C625.916 1.75705 636.388 7.50443 641.323 17.0085C646.257 26.5125 644.156 39.7741 635.24 45.7036C647.948 60.2709 652.378 76.5056 651.678 95.8252C650.979 115.145 629.927 132.925 616.199 146.535C613.133 144.676 610.346 135.966 612.031 132.802C613.717 129.638 611.302 125.972 613.39 123.057C615.478 120.142 617.225 124.783 615.114 121.885C613.782 120.056 618.981 115.849 617.001 114.755C607.424 109.461 604.239 97.5227 598.224 88.3809C590.969 77.3542 578.552 69.8868 565.412 68.648C558.174 67.9655 550.528 69.2016 544.595 73.4043C538.662 77.607 534.821 85.1171 536.197 92.257C532.633 88.6387 530.86 83.3362 531.529 78.3021C532.198 73.2679 535.295 68.6127 539.679 66.0508C537.013 57.234 539.297 47.092 545.485 40.2691C551.673 33.4463 576.774 34.6084 585.807 36.404L585.109 35.2054Z" fill="#2F2E41"/>
<path d="M586.511 68.9155C598.476 70.2072 607.115 80.5724 614.41 90.1445C618.615 95.6617 623.019 101.755 622.914 108.691C622.807 115.703 618.119 121.718 615.878 128.364C612.216 139.227 615.785 152.151 624.503 159.594C615.889 161.229 606.576 154.769 605.089 146.128C603.358 136.068 610.983 126.358 610.08 116.19C609.285 107.232 602.226 100.338 596.225 93.64C590.224 86.9421 584.588 78.0541 587.349 69.4951L586.511 68.9155Z" fill="#2F2E41"/>
</svg>
