<svg width="190" height="51" viewBox="0 0 190 51" fill="none" xmlns="http://www.w3.org/2000/svg">
<path d="M56.4012 1.94171C50.7009 2.26665 39.3712 3.44937 32.3769 7.74981C31.8943 8.04654 31.6207 8.57416 31.6207 9.12582V47.1433C31.6207 48.3501 32.9345 49.1128 34.0423 48.5528C41.2383 44.9148 51.6454 43.9222 56.7912 43.6505C58.5481 43.5575 59.9139 42.1429 59.9139 40.4471V5.14928C59.9149 3.29892 58.3172 1.83305 56.4012 1.94171ZM27.5369 7.74981C20.5437 3.44937 9.214 2.26769 3.51376 1.94171C1.59773 1.83305 0 3.29892 0 5.14928V40.4482C0 42.145 1.36577 43.5596 3.12265 43.6516C8.27055 43.9232 18.6828 44.9168 25.8789 48.557C26.9836 49.1159 28.2932 48.3543 28.2932 47.1507V9.10702C28.2932 8.55431 28.0206 8.04758 27.5369 7.74981Z" fill="#7DC143"/>
<path d="M74.6303 23.045H82.0151V25.3156H74.6303V23.045ZM74.8425 29.4112H83.2247V31.7242H72.0839V16.8698H82.9276V19.1828H74.8425V29.4112Z" fill="#2F2E41"/>
<path d="M86.0454 31.7242V15.9785H88.698V31.7242H86.0454Z" fill="#2F2E41"/>
<path d="M96.9753 31.8728C95.886 31.8728 94.9028 31.6323 94.0257 31.1513C93.1627 30.6561 92.4836 29.9771 91.9885 29.1141C91.4933 28.2511 91.2458 27.2325 91.2458 26.0583C91.2458 24.8841 91.4933 23.8655 91.9885 23.0025C92.4836 22.1396 93.1627 21.4676 94.0257 20.9866C94.9028 20.5056 95.886 20.2651 96.9753 20.2651C97.9232 20.2651 98.772 20.4773 99.5218 20.9017C100.272 21.312 100.866 21.9415 101.304 22.7903C101.743 23.6392 101.962 24.7285 101.962 26.0583C101.962 27.374 101.75 28.4633 101.326 29.3263C100.901 30.1751 100.314 30.8117 99.5643 31.2362C98.8145 31.6606 97.9515 31.8728 96.9753 31.8728ZM97.2936 29.6022C97.9303 29.6022 98.4961 29.4607 98.9913 29.1778C99.5006 28.8948 99.9038 28.4845 100.201 27.947C100.512 27.4094 100.668 26.7798 100.668 26.0583C100.668 25.3227 100.512 24.6931 100.201 24.1697C99.9038 23.6321 99.5006 23.2218 98.9913 22.9389C98.4961 22.6559 97.9303 22.5145 97.2936 22.5145C96.657 22.5145 96.0841 22.6559 95.5748 22.9389C95.0796 23.2218 94.6764 23.6321 94.3652 24.1697C94.0681 24.6931 93.9196 25.3227 93.9196 26.0583C93.9196 26.7798 94.0681 27.4094 94.3652 27.947C94.6764 28.4845 95.0796 28.8948 95.5748 29.1778C96.0841 29.4607 96.657 29.6022 97.2936 29.6022ZM100.731 31.7242V29.0504L100.837 26.0371L100.625 23.0238V15.9785H103.257V31.7242H100.731Z" fill="#2F2E41"/>
<path d="M112.074 31.8728C110.815 31.8728 109.712 31.6252 108.764 31.13C107.83 30.6208 107.102 29.9275 106.578 29.0504C106.069 28.1733 105.814 27.1759 105.814 26.0583C105.814 24.9266 106.062 23.9292 106.557 23.0662C107.066 22.1891 107.759 21.503 108.637 21.0078C109.528 20.5127 110.539 20.2651 111.671 20.2651C112.775 20.2651 113.758 20.5056 114.621 20.9866C115.484 21.4676 116.163 22.1466 116.658 23.0238C117.153 23.9009 117.401 24.9336 117.401 26.122C117.401 26.2352 117.394 26.3625 117.379 26.504C117.379 26.6454 117.372 26.7798 117.358 26.9071H107.915V25.1458H115.958L114.918 25.6976C114.932 25.0468 114.798 24.4738 114.515 23.9787C114.232 23.4835 113.843 23.0945 113.348 22.8116C112.867 22.5286 112.308 22.3871 111.671 22.3871C111.02 22.3871 110.447 22.5286 109.952 22.8116C109.471 23.0945 109.089 23.4906 108.806 23.9999C108.538 24.4951 108.403 25.0822 108.403 25.7612V26.1856C108.403 26.8647 108.559 27.466 108.87 27.9894C109.181 28.5128 109.62 28.916 110.186 29.199C110.752 29.4819 111.402 29.6234 112.138 29.6234C112.775 29.6234 113.348 29.5244 113.857 29.3263C114.366 29.1282 114.819 28.817 115.215 28.3926L116.637 30.0266C116.127 30.6208 115.484 31.0805 114.706 31.4059C113.942 31.7172 113.065 31.8728 112.074 31.8728Z" fill="#2F2E41"/>
<path d="M119.949 31.7242V20.3924H122.474V23.5118L122.177 22.5994C122.516 21.8354 123.047 21.2554 123.768 20.8593C124.504 20.4631 125.417 20.2651 126.506 20.2651V22.7903C126.393 22.762 126.287 22.7479 126.188 22.7479C126.088 22.7338 125.989 22.7267 125.89 22.7267C124.886 22.7267 124.087 23.0238 123.493 23.6179C122.898 24.198 122.601 25.068 122.601 26.2281V31.7242H119.949Z" fill="#2F2E41"/>
<path d="M134.979 31.7242V16.8698H141.939C143.722 16.8698 145.08 17.2235 146.014 17.9308C146.947 18.624 147.414 19.5577 147.414 20.7319C147.414 21.5242 147.23 22.2032 146.863 22.7691C146.495 23.3209 146 23.7523 145.377 24.0636C144.769 24.3607 144.104 24.5092 143.382 24.5092L143.764 23.7453C144.599 23.7453 145.349 23.9009 146.014 24.2121C146.679 24.5092 147.202 24.9478 147.584 25.5278C147.98 26.1078 148.178 26.8293 148.178 27.6923C148.178 28.9655 147.69 29.9558 146.714 30.6632C145.738 31.3706 144.288 31.7242 142.364 31.7242H134.979ZM137.738 29.5597H142.194C143.227 29.5597 144.019 29.39 144.571 29.0504C145.122 28.7109 145.398 28.1662 145.398 27.4164C145.398 26.6808 145.122 26.1432 144.571 25.8037C144.019 25.45 143.227 25.2732 142.194 25.2732H137.525V23.1299H141.642C142.604 23.1299 143.34 22.9601 143.849 22.6206C144.373 22.281 144.634 21.7717 144.634 21.0927C144.634 20.3995 144.373 19.8831 143.849 19.5436C143.34 19.2041 142.604 19.0343 141.642 19.0343H137.738V29.5597Z" fill="#2F2E41"/>
<path d="M155.961 31.8728C154.801 31.8728 153.768 31.6252 152.863 31.13C151.957 30.6208 151.243 29.9275 150.719 29.0504C150.196 28.1733 149.934 27.1759 149.934 26.0583C149.934 24.9266 150.196 23.9292 150.719 23.0662C151.243 22.1891 151.957 21.503 152.863 21.0078C153.768 20.5127 154.801 20.2651 155.961 20.2651C157.135 20.2651 158.175 20.5127 159.08 21.0078C160 21.503 160.714 22.182 161.223 23.045C161.747 23.908 162.009 24.9124 162.009 26.0583C162.009 27.1759 161.747 28.1733 161.223 29.0504C160.714 29.9275 160 30.6208 159.08 31.13C158.175 31.6252 157.135 31.8728 155.961 31.8728ZM155.961 29.6022C156.612 29.6022 157.192 29.4607 157.701 29.1778C158.21 28.8948 158.606 28.4845 158.889 27.947C159.186 27.4094 159.335 26.7798 159.335 26.0583C159.335 25.3227 159.186 24.6931 158.889 24.1697C158.606 23.6321 158.21 23.2218 157.701 22.9389C157.192 22.6559 156.619 22.5145 155.982 22.5145C155.331 22.5145 154.751 22.6559 154.242 22.9389C153.747 23.2218 153.351 23.6321 153.054 24.1697C152.756 24.6931 152.608 25.3227 152.608 26.0583C152.608 26.7798 152.756 27.4094 153.054 27.947C153.351 28.4845 153.747 28.8948 154.242 29.1778C154.751 29.4607 155.324 29.6022 155.961 29.6022Z" fill="#2F2E41"/>
<path d="M169.638 31.8728C168.478 31.8728 167.445 31.6252 166.54 31.13C165.634 30.6208 164.92 29.9275 164.397 29.0504C163.873 28.1733 163.611 27.1759 163.611 26.0583C163.611 24.9266 163.873 23.9292 164.397 23.0662C164.92 22.1891 165.634 21.503 166.54 21.0078C167.445 20.5127 168.478 20.2651 169.638 20.2651C170.812 20.2651 171.852 20.5127 172.758 21.0078C173.677 21.503 174.392 22.182 174.901 23.045C175.424 23.908 175.686 24.9124 175.686 26.0583C175.686 27.1759 175.424 28.1733 174.901 29.0504C174.392 29.9275 173.677 30.6208 172.758 31.13C171.852 31.6252 170.812 31.8728 169.638 31.8728ZM169.638 29.6022C170.289 29.6022 170.869 29.4607 171.378 29.1778C171.887 28.8948 172.284 28.4845 172.567 27.947C172.864 27.4094 173.012 26.7798 173.012 26.0583C173.012 25.3227 172.864 24.6931 172.567 24.1697C172.284 23.6321 171.887 23.2218 171.378 22.9389C170.869 22.6559 170.296 22.5145 169.659 22.5145C169.009 22.5145 168.429 22.6559 167.919 22.9389C167.424 23.2218 167.028 23.6321 166.731 24.1697C166.434 24.6931 166.285 25.3227 166.285 26.0583C166.285 26.7798 166.434 27.4094 166.731 27.947C167.028 28.4845 167.424 28.8948 167.919 29.1778C168.429 29.4607 169.001 29.6022 169.638 29.6022Z" fill="#2F2E41"/>
<path d="M180.387 29.199L180.451 25.8673L186.371 20.3924H189.554L184.525 25.4429L183.124 26.6101L180.387 29.199ZM178.223 31.7242V15.9785H180.875V31.7242H178.223ZM186.774 31.7242L182.636 26.6101L184.313 24.488L190 31.7242H186.774Z" fill="#2F2E41"/>
<path d="M55.2331 48.2572L54.9451 1L47.7439 1.47429V49.68L51.7766 45.2533L55.2331 48.2572Z" fill="#D16FFF" stroke="white" stroke-linejoin="round"/>
</svg>
