<svg width="121" height="38" viewBox="0 0 121 38" fill="none" xmlns="http://www.w3.org/2000/svg">
<path d="M44.3418 5.7693H46.3653C46.5927 5.7693 46.8108 5.85872 46.9716 6.01789C47.1324 6.17706 47.2228 6.39294 47.2228 6.61803V28.0019C47.2228 28.1448 47.2801 28.2819 47.3822 28.3829C47.4843 28.484 47.6228 28.5408 47.7672 28.5408H60.5814C60.8088 28.5408 61.0269 28.6302 61.1877 28.7894C61.3485 28.9486 61.4388 29.1644 61.4388 29.3895V30.9088C61.4388 31.1339 61.3485 31.3497 61.1877 31.5089C61.0269 31.6681 60.8088 31.7575 60.5814 31.7575H44.3418C44.1144 31.7575 43.8963 31.6681 43.7355 31.5089C43.5747 31.3497 43.4844 31.1339 43.4844 30.9088V6.62228C43.4838 6.51046 43.5056 6.39964 43.5484 6.29618C43.5913 6.19272 43.6543 6.09865 43.734 6.01939C43.8137 5.94013 43.9084 5.87723 44.0127 5.83431C44.117 5.79139 44.2288 5.7693 44.3418 5.7693Z" fill="white"/>
<path d="M82.2529 25.2691H69.0228C68.9156 25.2692 68.8107 25.3001 68.7208 25.3581C68.631 25.4161 68.5602 25.4988 68.5169 25.5959L66.0004 31.257C65.9332 31.4094 65.8222 31.539 65.6812 31.6295C65.5401 31.7201 65.3754 31.7676 65.2073 31.7662H63.2481C63.1008 31.7705 62.9548 31.7372 62.8243 31.6695C62.6938 31.6017 62.5832 31.5018 62.503 31.3794C62.4229 31.257 62.3759 31.1162 62.3668 30.9706C62.3576 30.825 62.3865 30.6796 62.4507 30.5483L73.5629 6.25754C73.6311 6.10731 73.742 5.97997 73.8821 5.89105C74.0221 5.80214 74.1853 5.75548 74.3517 5.75679H76.954C77.1197 5.75631 77.2819 5.80335 77.4212 5.89221C77.5604 5.98108 77.6706 6.10797 77.7385 6.25754L88.8851 30.544C88.9467 30.674 88.9741 30.8174 88.9645 30.9607C88.955 31.104 88.9088 31.2425 88.8304 31.3634C88.7521 31.4842 88.644 31.5834 88.5163 31.6516C88.3886 31.7198 88.2456 31.7549 88.1005 31.7535H86.0641C85.8968 31.754 85.7329 31.7061 85.5928 31.6156C85.4526 31.5252 85.3422 31.396 85.2753 31.2442L82.7416 25.5959C82.6996 25.5013 82.6314 25.4205 82.5449 25.3627C82.4584 25.3048 82.3572 25.2724 82.2529 25.2691ZM81.0268 21.7045L76.0237 10.4333C75.9896 10.3592 75.9347 10.2964 75.8655 10.2524C75.7963 10.2083 75.7158 10.1849 75.6336 10.1849C75.5513 10.1849 75.4708 10.2083 75.4016 10.2524C75.3325 10.2964 75.2775 10.3592 75.2434 10.4333L70.2318 21.7045C70.2034 21.7688 70.1916 21.8392 70.1975 21.9092C70.2033 21.9792 70.2266 22.0466 70.2653 22.1055C70.3039 22.1644 70.3568 22.2129 70.419 22.2465C70.4812 22.2802 70.551 22.2981 70.6219 22.2986H80.6452C80.7154 22.2968 80.7841 22.2779 80.8452 22.2436C80.9064 22.2093 80.958 22.1607 80.9957 22.102C81.0334 22.0434 81.0559 21.9764 81.0613 21.9071C81.0668 21.8378 81.0549 21.7682 81.0268 21.7045Z" fill="white"/>
<path d="M93.3134 5.7693H95.3369C95.5643 5.7693 95.7824 5.85872 95.9432 6.01789C96.104 6.17706 96.1943 6.39294 96.1943 6.61803V30.913C96.1943 31.1381 96.104 31.354 95.9432 31.5131C95.7824 31.6723 95.5643 31.7617 95.3369 31.7617H93.3134C93.086 31.7617 92.8679 31.6723 92.7071 31.5131C92.5463 31.354 92.4559 31.1381 92.4559 30.913V6.62228C92.4554 6.51046 92.4771 6.39964 92.52 6.29618C92.5628 6.19272 92.6259 6.09865 92.7056 6.01939C92.7852 5.94013 92.8799 5.87723 92.9843 5.83431C93.0886 5.79139 93.2004 5.7693 93.3134 5.7693Z" fill="white"/>
<path d="M105.116 31.1543C103.748 30.7358 102.462 30.0901 101.313 29.2446C101.157 29.1256 101.046 28.9567 101.001 28.7665C100.956 28.5763 100.978 28.3765 101.065 28.2007L101.699 26.8809C101.751 26.7654 101.828 26.6628 101.925 26.5806C102.022 26.4983 102.136 26.4386 102.259 26.4056C102.383 26.3727 102.512 26.3674 102.637 26.3902C102.763 26.4129 102.882 26.4632 102.985 26.5372C103.924 27.1847 104.948 27.7016 106.029 28.0734C107.575 28.6318 109.207 28.919 110.852 28.9221C113.024 28.9221 114.649 28.5558 115.726 27.823C116.226 27.5151 116.637 27.0852 116.92 26.5746C117.203 26.0641 117.349 25.49 117.343 24.9076C117.357 24.5044 117.286 24.1027 117.134 23.7284C116.982 23.3541 116.752 23.0157 116.46 22.7349C115.835 22.1594 115.092 21.725 114.282 21.4618C113.424 21.1789 112.205 20.845 110.625 20.4603C109 20.0945 107.402 19.6224 105.84 19.0471C104.638 18.5872 103.569 17.8409 102.728 16.8744C101.871 15.8983 101.442 14.58 101.442 12.9193C101.425 11.5878 101.811 10.2817 102.548 9.16788C103.383 7.97472 104.549 7.0462 105.905 6.49437C107.671 5.77676 109.57 5.43552 111.478 5.49287C113.024 5.49073 114.563 5.69049 116.057 6.08698C117.188 6.37253 118.274 6.81092 119.285 7.38979C119.466 7.49341 119.602 7.65883 119.668 7.85496C119.735 8.0511 119.726 8.26446 119.645 8.45495L119.062 9.8596C119.016 9.9708 118.948 10.0712 118.86 10.1541C118.772 10.2371 118.668 10.3007 118.554 10.3408C118.44 10.3809 118.318 10.3966 118.197 10.3868C118.076 10.377 117.959 10.3419 117.853 10.284C116.996 9.82526 116.092 9.45823 115.156 9.1891C113.959 8.83134 112.716 8.64276 111.465 8.62894C109.339 8.62894 107.744 9.01228 106.681 9.77897C106.186 10.1034 105.781 10.5451 105.502 11.0639C105.224 11.5827 105.081 12.1621 105.086 12.7495C105.071 13.1543 105.143 13.5576 105.298 13.9324C105.454 14.3071 105.688 14.6447 105.986 14.9223C106.632 15.5047 107.392 15.9483 108.22 16.2251C109.408 16.6173 110.618 16.9445 111.842 17.2054C113.462 17.5687 115.055 18.0409 116.61 18.6185C117.805 19.0847 118.869 19.8285 119.714 20.787C120.571 21.7518 121 23.0517 121 24.687C121.014 26.0161 120.624 27.3187 119.881 28.4256C119.029 29.6334 117.836 30.565 116.451 31.1034C114.663 31.8052 112.749 32.1388 110.826 32.0837C108.885 32.0812 106.956 31.7673 105.116 31.1543Z" fill="white"/>
<path d="M36.4963 17.3457H27.5147L24.2737 10.1782C24.161 9.92482 23.976 9.70953 23.7414 9.55876C23.5069 9.40799 23.2329 9.32829 22.9532 9.32945H22.9104C22.6263 9.34015 22.352 9.4348 22.1228 9.60119C21.8936 9.76758 21.7199 9.99811 21.6242 10.2631L17.8987 20.363L15.0649 13.3609C14.9615 13.1045 14.7847 12.8836 14.5563 12.7253C14.3278 12.567 14.0576 12.4782 13.7788 12.4698H13.7188C13.4415 12.4721 13.1708 12.5534 12.939 12.7039C12.7071 12.8544 12.5239 13.0677 12.4112 13.3185L10.5635 17.3585H2.93668C3.26239 13.749 4.82122 10.3573 7.35606 7.74272C9.89089 5.12813 13.2503 3.44685 16.8802 2.97621C20.5101 2.50557 24.1937 3.27367 27.3233 5.15382C30.4529 7.03398 32.8416 9.91388 34.0955 13.3185C34.2256 13.6726 34.4923 13.961 34.8371 14.1205C35.1827 14.2776 35.5767 14.2944 35.9346 14.1672C36.1121 14.1033 36.2751 14.0054 36.4142 13.879C36.5534 13.7526 36.666 13.6004 36.7457 13.4309C36.8253 13.2614 36.8704 13.078 36.8784 12.8912C36.8863 12.7045 36.857 12.518 36.7921 12.3425C35.2642 8.19705 32.3104 4.71664 28.4489 2.51191C24.5873 0.30718 20.0648 -0.481023 15.6747 0.285601C11.2846 1.05223 7.30755 3.3247 4.44126 6.7043C1.57497 10.0839 0.00258418 14.3547 0 18.7674C0 18.9541 0.037148 19.1389 0.109323 19.3114C0.181498 19.4839 0.287287 19.6406 0.420649 19.7726C0.554011 19.9046 0.712335 20.0093 0.886581 20.0808C1.06083 20.1522 1.24758 20.189 1.43619 20.189H11.5023C11.7798 20.1877 12.051 20.1068 12.283 19.9562C12.5151 19.8056 12.6981 19.5916 12.8099 19.3403L13.6673 17.5027L16.6683 24.8655C16.7741 25.1288 16.9573 25.3546 17.1943 25.5135C17.4313 25.6724 17.7111 25.7571 17.9973 25.7567H18.0059C18.2878 25.7448 18.56 25.6511 18.7887 25.4874C19.0173 25.3237 19.1924 25.0971 19.292 24.8358L23.0819 14.5364L25.294 19.3487C25.4039 19.5972 25.5835 19.8092 25.8114 19.9597C26.0394 20.1101 26.3062 20.1926 26.5801 20.1975H34.9958C34.6564 23.7963 33.091 27.174 30.5567 29.7762C28.0223 32.3783 24.6695 34.0503 21.0487 34.5176C17.4278 34.9849 13.754 34.2198 10.6304 32.348C7.50668 30.4761 5.1187 27.6086 3.85841 24.2162C3.79211 24.0392 3.69033 23.8773 3.55919 23.7401C3.42805 23.603 3.27026 23.4936 3.0953 23.4184C2.92461 23.3385 2.7396 23.2929 2.55098 23.2842C2.36235 23.2755 2.17387 23.304 1.99643 23.3679C1.819 23.4319 1.65614 23.53 1.51729 23.6567C1.37844 23.7834 1.26636 23.936 1.18753 24.1059C1.10689 24.2747 1.06118 24.4578 1.05308 24.6444C1.04498 24.8309 1.07466 25.0172 1.14037 25.1923C2.6682 29.3377 5.62203 32.8181 9.48357 35.0228C13.3451 37.2275 17.8677 38.0157 22.2577 37.2491C26.6478 36.4825 30.6249 34.21 33.4912 30.8304C36.3575 27.4508 37.9299 23.18 37.9324 18.7674C37.9324 18.3903 37.7811 18.0287 37.5118 17.7621C37.2425 17.4955 36.8772 17.3457 36.4963 17.3457Z" fill="white"/>
</svg>
