<svg width="224" height="75" viewBox="0 0 224 75" fill="none" xmlns="http://www.w3.org/2000/svg">
<path d="M62.9038 0L62.3564 5.28235H107.543L106.325 17.2067H77.5054L76.2327 29.7249H102.453L101.221 41.8368H75.0011L72.6473 64.951H56.1572L55.1035 75H63.0817H100.468L108.597 0H62.9038Z" fill="white"/>
<path fill-rule="evenodd" clip-rule="evenodd" d="M141.987 23.2861C142.068 22.3076 141.9 21.3234 141.505 20.4506C141.109 19.5778 140.503 18.8532 139.757 18.3632C138.132 17.0106 136.17 16.2877 134.16 16.3002H123.007L121.529 30.8189H132.832C135.043 30.8791 137.22 30.1883 139.086 28.8341C139.905 28.2189 140.591 27.4002 141.093 26.4395C141.596 25.4788 141.901 24.4008 141.987 23.2861ZM155.973 64.951H138.183L138.662 47.7599C138.531 46.6159 138.196 45.5148 137.677 44.5249C136.992 43.4742 136.107 42.6141 135.09 42.0087C133.421 42.0087 130.634 41.9514 126.729 41.8368L120.393 41.6493L118.053 64.951H101.371L107.433 5.28232H142.015C146.352 5.14329 150.631 6.44637 154.331 9.0331C158.436 12.0337 160.215 16.0502 159.695 21.1294C159.319 24.6629 157.784 27.9021 155.398 30.1938C152.912 32.6342 149.944 34.3501 146.75 35.1948L146.668 35.9293C148.022 36.1088 149.353 36.4653 150.636 36.992C154.742 38.7268 155.59 41.6805 156.001 46.5722L155.973 63.4819L161.885 5.28232H185.655L204.321 44.7749L208.386 5.28232H224L217.938 64.951H195.262L175.597 24.5363L171.492 64.951H155.973ZM58.9621 38.5392C58.0498 47.6557 55.4542 54.3655 51.1755 58.6684C46.0848 63.8779 38.0792 66.4513 27.1588 66.3888C16.0924 66.3888 8.5156 64.055 4.42843 59.3873C0.67881 55.0739 -0.689663 48.1194 0.323007 38.5236L3.6484 5.28232H20.3438L16.9636 38.5392C16.4436 43.6653 17.1279 47.713 19.03 50.6355C20.04 52.1119 21.3516 53.2828 22.8499 54.0457C24.3482 54.8086 25.9875 55.1402 27.6241 55.0114C31.0195 55.1061 34.3268 53.7711 36.916 51.2606C40.0511 47.9583 41.9485 43.4008 42.212 38.5392L45.6469 5.28232H62.3285L58.9621 38.5392Z" fill="white"/>
</svg>
